<mxfile host="localhost" modified="2020-05-11T15:50:53.421Z" agent="5.0 (Windows NT 10.0; Win64; x64) AppleWebKit/537.36 (KHTML, like Gecko) Code/1.45.0 Chrome/78.0.3904.130 Electron/7.2.4 Safari/537.36" etag="TwQFe3-Ni6p2SHweaWuo" version="13.0.9">
    <diagram id="oQlsDqUnoRqt1SnFWlzI" name="Page-1">
        <mxGraphModel dx="416" dy="490" grid="1" gridSize="10" guides="1" tooltips="1" connect="1" arrows="1" fold="1" page="1" pageScale="1" pageWidth="850" pageHeight="1100" math="0" shadow="0">
            <root>
                <mxCell id="0"/>
                <mxCell id="1" parent="0"/>
                <mxCell id="3" value="Actor" style="shape=umlActor;verticalLabelPosition=bottom;labelBackgroundColor=#ffffff;verticalAlign=top;html=1;" parent="1" vertex="1">
                    <mxGeometry x="70" y="110" width="30" height="60" as="geometry"/>
                </mxCell>
                <mxCell id="5" value="Use Case" style="ellipse;whiteSpace=wrap;html=1;" parent="1" vertex="1">
                    <mxGeometry x="180" y="30" width="140" height="70" as="geometry"/>
                </mxCell>
                <mxCell id="6" value="" style="endArrow=open;endFill=1;endSize=12;html=1;" parent="1" source="3" target="5" edge="1">
                    <mxGeometry width="160" relative="1" as="geometry">
                        <mxPoint x="140" y="230" as="sourcePoint"/>
                        <mxPoint x="300" y="230" as="targetPoint"/>
                        <Array as="points">
                            <mxPoint x="140" y="85"/>
                        </Array>
                    </mxGeometry>
                </mxCell>
            </root>
        </mxGraphModel>
    </diagram>
</mxfile>